<?xml version="1.0" encoding="utf-8"?>
<!-- Generator: Adobe Illustrator 16.0.0, SVG Export Plug-In . SVG Version: 6.00 Build 0)  -->
<!DOCTYPE svg PUBLIC "-//W3C//DTD SVG 1.1//EN" "http://www.w3.org/Graphics/SVG/1.1/DTD/svg11.dtd">
<svg version="1.1" xmlns="http://www.w3.org/2000/svg" xmlns:xlink="http://www.w3.org/1999/xlink" x="0px" y="0px" width="960px"
	 height="640px" viewBox="0 0 960 640" enable-background="new 0 0 960 640" xml:space="preserve">
<g id="Layer_4">
	<rect fill-rule="evenodd" clip-rule="evenodd" fill="#00BDBF" width="960" height="640"/>
</g>
<g id="Layer_2" display="none">
	<g display="inline">
		<path fill-rule="evenodd" clip-rule="evenodd" d="M491.703,347.404c0-30.084,0-60.169,0-90.255
			c4.016-11.536,12.479-17.222,24.289-18.706c1.009-0.126,2.332-1.448,2.691-2.496c6.54-19.028,16.197-36.351,28.174-52.461
			c0.979-1.318,1.569-3.263,1.576-4.92c0.098-25.133,0.043-50.266,0.11-75.398c0.006-2.171-0.585-3.406-2.553-4.579
			c-8.027-4.786-11.539-13.573-9.249-22.339c2.148-8.224,8.029-12.593,15.649-15.172c2.593,0,5.187,0,7.78,0
			c0.313,0.212,0.598,0.525,0.943,0.623c8.783,2.473,14.074,8.301,15.184,17.232c1.096,8.809-2.789,15.495-10.313,20.241
			c-1.064,0.671-1.834,2.65-1.843,4.029c-0.119,18.925-0.084,37.853-0.067,56.778c0.001,0.945,0.181,1.891,0.292,2.978
			c5.188-4.449,9.94-8.851,15.024-12.831c43.464-34.038,92.542-47.883,146.918-37.432c70.229,13.497,116.631,56.057,142.457,121.979
			c1.013,2.586,2.025,3.721,4.929,4.157c15.093,2.264,22.6,11.24,22.6,26.475c0,25.408,0.013,50.816-0.022,76.223
			c-0.001,2.059-0.069,4.174-0.529,6.164c-2.254,9.736-10.789,16.631-22.763,18.141c-2.374,0.301-3.237,1.221-3.936,3.266
			c-7.707,22.596-19.799,42.688-35.174,60.844c-4.209,4.971-8.771,9.645-13.331,14.629c2.182,0.902,4.113,1.625,5.978,2.492
			c19.076,8.871,25.722,26.771,16.99,45.912c-6.074,13.313-16.15,22.77-29.228,28.902c-27.768,13.018-56.992,21.068-87.422,24.754
			c-7.052,0.854-14.125,1.529-21.188,2.287c-10.115,0-20.231,0-30.347,0c-1.258-0.227-2.51-0.584-3.779-0.66
			c-35.535-2.178-69.537-10.605-102.068-25.008c-12.791-5.664-23.285-14.086-30.11-26.475c-12.485-22.662-3.74-44.207,20.937-51.992
			c0.865-0.271,1.738-0.514,2.609-0.77c0.939-0.277,1.88-0.555,2.863-0.846c-0.232-0.539-0.276-0.832-0.443-1
			c-21.113-21.297-37.096-45.826-46.922-74.264c-0.28-0.811-1.512-1.725-2.391-1.83
			C504.192,364.654,495.721,358.955,491.703,347.404z M837.941,339.865c0-16.857-0.053-33.715,0.016-50.571
			c0.06-14.767-3.687-28.53-11.637-40.879c-19.854-30.841-49.464-46.671-84.937-49.154c-31.722-2.22-63.776-1.611-95.581-0.108
			c-26.004,1.229-49.278,11.705-68.643,29.56c-18.426,16.992-28.212,37.83-27.963,63.325c0.332,33.84,0.048,67.688,0.163,101.529
			c0.008,2.17,0.718,4.629,1.881,6.457c11.38,17.895,25.409,33.385,42.569,45.938c39.803,29.109,84.105,39.906,132.466,30.303
			c47.271-9.385,83.772-35.494,110.155-75.744c0.979-1.494,1.436-3.594,1.446-5.416
			C837.981,376.691,837.941,358.277,837.941,339.865z M695.916,151.453c-4.031,5.951-7.633,11.127-11.074,16.407
			c-1.797,2.755-0.752,4.942,2.459,5.071c4.527,0.181,9.083,0.248,13.593-0.09c1.16-0.086,2.195-1.869,3.287-2.873
			c-1.063-0.885-2.037-2.365-3.203-2.535c-2.619-0.385-5.336-0.122-8.759-0.122c2.188-3.234,3.892-5.774,5.62-8.297
			c1.755-2.564,3.604-5.066,5.289-7.676c2.01-3.113,0.911-5.326-2.742-5.421c-4.402-0.115-8.827-0.229-13.206,0.114
			c-1.156,0.091-2.182,1.868-3.268,2.87c1.092,0.851,2.098,2.259,3.291,2.437C689.73,151.716,692.355,151.453,695.916,151.453z"/>
		<path fill-rule="evenodd" clip-rule="evenodd" d="M578.16,369.787c3.43,0.148,4.877,2.502,5.908,5.314
			c4.313,11.771,10.48,22.49,18.397,32.195c11.753,14.408,26.188,25.293,43.239,32.703c5.305,2.307,7.199,5.127,5.656,8.465
			c-1.51,3.262-4.697,3.863-9.771,1.609c-32.082-14.246-54.587-37.691-67.443-70.369c-0.473-1.199-0.958-2.432-1.155-3.693
			C572.441,372.498,574.822,369.707,578.16,369.787z"/>
		<path fill-rule="evenodd" clip-rule="evenodd" d="M572.42,355.164c-2.884-0.102-5.332-2.738-5.22-5.621
			c0.113-2.898,2.741-5.342,5.62-5.225c2.907,0.119,5.332,2.73,5.219,5.619C577.924,352.838,575.315,355.266,572.42,355.164z"/>
	</g>
</g>
<g id="Layer_2_copy">
	<g>
		<path fill-rule="evenodd" clip-rule="evenodd" fill="#FFFFFF" d="M585.759,316.745c4.004-18.244,8.008-36.489,12.012-54.735
			c3.97-6.462,9.859-8.784,17.22-8.112c0.629,0.058,1.606-0.567,1.964-1.155c6.499-10.67,14.661-19.89,24.068-28.066
			c0.769-0.669,1.387-1.77,1.611-2.774c3.403-15.229,6.715-30.479,10.101-45.712c0.293-1.315,0.098-2.143-0.939-3.117
			c-4.23-3.971-5.191-9.767-2.636-14.778c2.397-4.702,6.546-6.569,11.51-7.119c1.572,0.345,3.146,0.69,4.72,1.035
			c0.16,0.17,0.291,0.398,0.488,0.503c4.998,2.668,7.43,6.907,6.915,12.472c-0.509,5.488-3.754,9.026-8.948,10.903
			c-0.735,0.265-1.466,1.363-1.655,2.198c-2.591,11.462-5.088,22.945-7.596,34.425c-0.126,0.573-0.142,1.17-0.22,1.844
			c3.738-2.007,7.207-4.044,10.819-5.781c30.89-14.859,62.496-16.725,94.083-3.149c40.794,17.531,63.271,49.518,70.16,92.934
			c0.271,1.704,0.735,2.527,2.438,3.178c8.852,3.382,12.21,9.824,10.183,19.063c-3.382,15.41-6.755,30.82-10.158,46.224
			c-0.275,1.248-0.599,2.521-1.141,3.668c-2.664,5.605-8.757,8.649-16.22,7.973c-1.479-0.134-2.126,0.311-2.821,1.457
			c-7.681,12.677-17.689,23.252-29.429,32.218c-3.214,2.453-6.604,4.684-10.032,7.098c1.204,0.838,2.279,1.532,3.294,2.308
			c10.388,7.918,12.036,19.659,4.193,30.104c-5.456,7.267-12.824,11.661-21.571,13.639c-18.573,4.2-37.368,5.193-56.313,3.378
			c-4.392-0.42-8.771-0.951-13.154-1.432c-6.135-1.346-12.27-2.693-18.403-4.039c-0.733-0.305-1.444-0.688-2.205-0.905
			c-21.261-6.048-40.761-15.685-58.572-28.749c-7.004-5.137-12.247-11.641-14.738-20.063c-4.556-15.405,3.614-27.307,19.617-28.744
			c0.562-0.051,1.122-0.081,1.685-0.119c0.606-0.044,1.214-0.087,1.85-0.133c-0.069-0.358-0.058-0.54-0.136-0.665
			c-9.971-15.726-16.398-32.729-18.574-51.283c-0.062-0.528-0.688-1.247-1.205-1.429
			C591.036,328.87,586.658,324.285,585.759,316.745z M796.744,358.253c2.242-10.224,4.454-20.454,6.738-30.669
			c2.001-8.946,1.562-17.793-1.617-26.34c-7.936-21.346-23.786-34.888-44.969-41.114c-18.943-5.568-38.463-9.464-57.952-12.785
			c-15.934-2.715-31.443,0.541-45.563,8.792c-13.436,7.853-22.144,19.188-25.386,34.683c-4.303,20.567-8.979,41.057-13.413,61.595
			c-0.283,1.317-0.181,2.902,0.281,4.167c4.521,12.367,10.968,23.63,19.703,33.523c20.266,22.953,45.697,35.396,76.304,36.007
			c29.917,0.601,55.529-10.377,76.886-31.276c0.792-0.774,1.349-1.986,1.599-3.091C791.866,380.591,794.293,369.418,796.744,358.253
			z M735.684,225.086c-3.235,3.072-6.109,5.732-8.897,8.476c-1.458,1.432-1.115,2.897,0.815,3.403
			c2.723,0.712,5.476,1.359,8.256,1.754c0.714,0.103,1.58-0.841,2.374-1.305c-0.525-0.678-0.919-1.705-1.604-1.963
			c-1.537-0.583-3.22-0.784-5.297-1.24c1.757-1.67,3.129-2.984,4.513-4.284c1.406-1.321,2.86-2.593,4.229-3.951
			c1.634-1.621,1.264-3.109-0.939-3.653c-2.655-0.655-5.323-1.313-8.024-1.688c-0.714-0.099-1.571,0.842-2.364,1.306
			c0.549,0.662,0.972,1.649,1.672,1.916C731.898,224.422,733.524,224.612,735.684,225.086z"/>
		<path fill-rule="evenodd" clip-rule="evenodd" fill="#FFFFFF" d="M635.213,341.826c2.061,0.546,2.625,2.166,2.876,4.011
			c1.049,7.712,3.364,15.033,6.872,21.974c5.211,10.301,12.517,18.823,21.872,25.588c2.91,2.103,3.684,4.066,2.303,5.886
			c-1.349,1.776-3.362,1.717-6.139-0.324c-17.563-12.909-28.091-30.124-31.538-51.652c-0.127-0.789-0.257-1.604-0.209-2.394
			C631.385,342.711,633.199,341.333,635.213,341.826z"/>
		<path fill-rule="evenodd" clip-rule="evenodd" fill="#FFFFFF" d="M633.679,332.194c-1.736-0.445-2.87-2.37-2.419-4.104
			c0.455-1.742,2.375-2.875,4.104-2.42c1.748,0.459,2.871,2.366,2.418,4.104C637.325,331.517,635.421,332.643,633.679,332.194z"/>
	</g>
</g>
<g id="Layer_3">
</g>
</svg>
