<?xml version="1.0" encoding="utf-8"?>
<!-- Generator: Adobe Illustrator 16.0.0, SVG Export Plug-In . SVG Version: 6.00 Build 0)  -->
<!DOCTYPE svg PUBLIC "-//W3C//DTD SVG 1.1//EN" "http://www.w3.org/Graphics/SVG/1.1/DTD/svg11.dtd">
<svg version="1.1" id="Layer_1" xmlns="http://www.w3.org/2000/svg" xmlns:xlink="http://www.w3.org/1999/xlink" x="0px" y="0px"
	 width="1500px" height="1500px" viewBox="0 0 1500 1500" enable-background="new 0 0 1500 1500" xml:space="preserve">
<g>
	<path fill-rule="evenodd" clip-rule="evenodd" fill="#FFFFFF" d="M291.446,616.654c2.705-2.29,4.872-4.119,7.034-5.954
		c22.856-19.39,48.665-32.761,78.602-36.627c51.43-6.641,116.251,13.198,150.601,72.49c5.035,8.69,9.176,17.917,13.412,27.042
		c1.516,3.266,3.228,5.248,6.988,6.021c10.967,2.253,16.455,8.878,16.545,20.085c0.171,21.278,0.128,42.558,0.017,63.836
		c-0.052,9.888-6.178,16.485-16.547,19.099c-2.311,0.581-5.434,2.305-6.137,4.244c-8.018,22.126-20.874,41.071-37.005,57.975
		c-0.729,0.763-1.31,1.669-2.321,2.975c2.204,1.13,4.089,2.089,5.969,3.06c14.292,7.384,19.23,20.855,12.926,35.667
		c-4.982,11.706-13.726,19.641-25.173,24.936c-21.615,9.999-44.296,16.275-67.822,19.526c-45.768,6.325-89.781-0.207-132.135-18.46
		c-11.652-5.021-21.058-12.527-26.602-24.253c-7.906-16.725-1.852-32.125,15.327-38.946c2.322-0.923,4.698-1.707,7.626-2.765
		c-1.688-1.914-2.835-3.29-4.06-4.593c-14.863-15.821-26.413-33.73-33.877-54.159c-1.133-3.1-2.762-4.668-6.108-5.332
		c-11.658-2.312-17.087-9.239-17.088-21.163c0-20.546,0.449-41.105-0.189-61.631c-0.318-10.255,7.435-18.519,16.039-19.996
		c4.522-0.775,6.148-3.245,8.034-6.957c6.284-12.37,13.244-24.393,19.682-36.687c1.631-3.114,3.164-6.725,3.229-10.136
		c0.357-18.521,0.391-37.054,0.116-55.577c-0.04-2.645-1.74-5.951-3.746-7.76c-7.564-6.821-8.81-16.815-2.405-23.871
		c6.68-7.359,17.617-7.502,24.361-0.318c6.191,6.594,5.114,17.507-2.015,24.03c-1.833,1.678-3.802,4.374-3.854,6.646
		c-0.338,14.85-0.173,29.713-0.142,44.571C290.729,614.325,291.031,614.978,291.446,616.654z M516.983,759.903
		c0-13.392-0.064-26.785,0.019-40.177c0.083-13.692-4.16-25.884-12.147-36.93c-16.965-23.461-40.264-35.541-68.798-36.552
		c-25.081-0.889-50.221-0.501-75.327-0.144c-27.551,0.393-49.75,12.399-67.328,33.155c-9.68,11.43-14.684,24.963-14.808,39.933
		c-0.234,28.25-0.131,56.505,0.061,84.756c0.02,2.939,0.912,6.316,2.531,8.733c24.442,36.48,58.339,59.295,102.056,63.323
		c54.962,5.064,99.174-16.018,130.812-61.83c1.827-2.644,2.744-6.417,2.809-9.69C517.154,789.627,516.989,774.765,516.983,759.903z
		 M397.898,618.941c2.477-3.632,5.079-7.101,7.25-10.822c0.762-1.306,1.215-3.763,0.503-4.771
		c-1.98-2.801-13.173-1.105-15.713,2.644c2.821,0.831,5.422,1.597,8.409,2.477c-2.573,3.862-5.167,7.378-7.291,11.158
		c-0.687,1.223-0.826,3.817-0.036,4.61c2.581,2.591,12.741,0.906,15.702-2.997C403.703,620.454,401.089,619.772,397.898,618.941z"/>
	<path fill-rule="evenodd" clip-rule="evenodd" fill="#FFFFFF" d="M847.193,739.909c-46.433-0.014-83.067-36.597-83.075-82.959
		c-0.009-46.505,36.897-83.25,83.554-83.187c46.104,0.062,82.865,37.087,82.791,83.386
		C930.389,703.467,893.709,739.922,847.193,739.909z M846.886,705.964c27.482,0.069,49.527-21.718,49.527-48.945
		c0.001-26.783-22.319-49.196-48.991-49.196c-26.816,0.001-49.212,22.253-49.256,48.939
		C798.121,683.867,819.935,705.897,846.886,705.964z"/>
	<path fill-rule="evenodd" clip-rule="evenodd" fill="#FFFFFF" d="M655.523,705.297c3.042,0.16,4.968,0.347,6.896,0.35
		c17.237,0.03,34.478-0.176,51.71,0.101c13.478,0.216,21.303,14.404,14.683,26.083c-3.416,6.028-8.859,8.574-15.545,8.584
		c-30.256,0.046-60.513,0.07-90.77-0.02c-7.06-0.02-13.075-2.65-16.226-9.337c-3.103-6.585-2.522-13.087,1.724-19.236
		c22.07-31.971,44.086-63.98,66.109-95.984c1.415-2.055,2.731-4.177,4.721-7.232c-2.99,0-4.917,0-6.844,0
		c-16.503,0-33.008,0.022-49.511-0.008c-11.572-0.021-18.943-6.886-18.869-17.482c0.073-10.419,7.649-17.339,19.102-17.347
		c29.34-0.021,58.68,0.071,88.02-0.059c7.887-0.036,14.027,2.784,17.734,9.743c3.745,7.03,2.308,13.71-2.159,20.099
		c-22.057,31.536-44.034,63.128-66.031,94.707C658.85,700.291,657.495,702.367,655.523,705.297z"/>
	<path fill-rule="evenodd" clip-rule="evenodd" fill="#FFFFFF" d="M1194.481,802.09c0,9.668,0.08,18.264-0.037,26.857
		c-0.05,3.664,2.276,3.517,4.761,3.514c11.555-0.017,23.107-0.025,34.662,0.002c10.478,0.023,18.141,7.116,18.431,16.999
		c0.28,9.582-7.396,17.527-17.842,17.756c-13.001,0.284-26.014,0.068-39.927,0.068c0,9.972-0.131,19.606,0.228,29.223
		c0.032,0.85,3.27,2.242,5.03,2.261c17.236,0.172,34.477,0.036,51.716,0.129c11.359,0.063,18.26,7.169,18.006,18.25
		c-0.22,9.606-6.806,16.279-16.921,16.406c-17.604,0.222-35.211,0.088-52.817,0.1c-6.235,0.004-12.471,0.013-18.707-0.003
		c-14.782-0.038-21.169-6.365-21.179-21.002c-0.013-19.438-0.003-38.88-0.003-58.32c0-22.19-0.019-44.381,0.007-66.572
		c0.015-14.083,6.393-20.443,20.434-20.448c23.292-0.005,46.582-0.008,69.873,0.003c12.198,0.005,19.164,6.059,19.316,16.74
		c0.161,11.253-6.431,17.793-18.855,17.972c-16.319,0.238-32.645,0.063-48.967,0.066
		C1199.533,802.09,1197.376,802.09,1194.481,802.09z"/>
	<path fill-rule="evenodd" clip-rule="evenodd" fill="#FFFFFF" d="M657.793,934.438c-22.906-0.94-42.399-7.927-55.843-27.291
		c-2.418-3.483-4.359-7.799-4.938-11.95c-1.157-8.29,3.231-14.739,10.773-17.761c7.257-2.906,14.122-0.951,19.595,5.578
		c2.932,3.499,5.397,7.58,8.887,10.386c11.006,8.848,23.424,8.228,35.89,3.771c5.533-1.979,8.269-6.778,8.274-12.525
		c0.005-5.425-2.998-9.931-8.044-11.417c-8.551-2.518-17.364-4.263-26.158-5.808c-13.474-2.368-25.832-6.686-35.424-17.072
		c-22.684-24.561-15.631-62.606,14.408-77.369c24.61-12.095,57.775-6.832,77.088,12.325c5.468,5.426,8.113,11.871,5.169,19.471
		c-2.69,6.947-7.958,10.697-15.494,11.284c-6.308,0.492-11.148-2.691-14.995-6.824c-8.905-9.568-19.668-10.446-31.362-7.793
		c-8.617,1.957-13.963,8.582-13.569,16.282c0.378,7.4,6.232,13.379,14.644,14.77c9.03,1.492,18.084,2.835,27.118,4.302
		c1.801,0.292,3.574,0.791,5.333,1.29c24.14,6.851,35.585,19.332,36.345,39.605c0.911,24.279-12.084,44.716-34.132,52.184
		C673.85,932.416,665.668,932.974,657.793,934.438z"/>
	<path fill-rule="evenodd" clip-rule="evenodd" fill="#FFFFFF" d="M1075.516,767.206c26.278-0.083,46.946,10.206,63.693,28.885
		c5.824,6.499,6.101,14.031,1.246,20.539c-5.113,6.854-14.319,9.803-21.454,6.468c-2.215-1.035-4.067-3.039-5.811-4.863
		c-13.947-14.614-30.646-20.627-50.328-14.84c-19.713,5.799-31.492,19.533-35.298,39.614c-4.917,25.959,16.135,53.072,42.423,55.708
		c17.602,1.764,31.96-4.098,43.669-17.034c5.972-6.597,16.796-7.235,23.756-1.308c7.717,6.571,8.522,16.098,2.017,23.826
		c-36.102,42.876-104.778,37.727-134.146-10.06c-31.563-51.355-0.677-117.536,59.007-126.316
		C1068.26,767.241,1072.335,767.367,1075.516,767.206z"/>
	<path fill-rule="evenodd" clip-rule="evenodd" fill="#FFFFFF" d="M991.415,916.455c-0.439,8.643-5.777,15.401-13.864,17.13
		c-8.149,1.743-16.354-1.862-19.242-9.863c-2.188-6.054-5.594-7.142-11.391-7.018c-17.404,0.374-34.822,0.223-52.233,0.063
		c-3.574-0.033-5.457,0.745-6.782,4.482c-3.811,10.747-13.446,15.353-23.025,11.598c-9.408-3.687-13.529-13.873-9.53-24.147
		c16.651-42.779,33.364-85.536,50.09-128.289c3.167-8.095,9.788-12.932,17.344-12.898c7.736,0.034,13.419,4.216,16.728,12.691
		c16.693,42.764,33.342,85.545,49.937,128.346C990.418,911.062,990.772,913.815,991.415,916.455z M923.194,834.453
		c-0.467,0.037-0.933,0.074-1.399,0.111c-6.971,17.763-13.94,35.527-21.09,53.743c14.759,0,28.716,0,43.426,0
		C936.997,869.956,930.096,852.205,923.194,834.453z"/>
	<path fill-rule="evenodd" clip-rule="evenodd" fill="#FFFFFF" d="M1248.02,740.713c-6.579-0.398-12.393-4.267-15.02-12.044
		c-1.477-4.375-3.933-5.649-8.465-5.583c-17.975,0.267-35.956,0.212-53.933,0.029c-3.854-0.04-5.824,1.01-7.194,4.84
		c-3.817,10.676-13.492,15.315-23.051,11.566c-9.349-3.666-13.462-13.918-9.438-24.236c16.688-42.808,33.455-85.584,50.21-128.366
		c3.009-7.68,8.589-12.376,16.857-12.951c7.343-0.511,13.924,4.778,17.16,13.084c16.551,42.467,33.102,84.934,49.582,127.428
		C1269.989,728.042,1262.647,740.625,1248.02,740.713z M1198.764,641.119c-0.438-0.031-0.875-0.061-1.313-0.092
		c-6.966,17.717-13.931,35.434-21.093,53.649c14.669,0,28.54,0,43.192,0C1212.431,676.331,1205.597,658.725,1198.764,641.119z"/>
	<path fill-rule="evenodd" clip-rule="evenodd" fill="#FFFFFF" d="M767.34,886.693c0,10.271,0.025,19.596-0.006,28.919
		c-0.036,10.321-6.517,17.542-16.037,17.936c-10.224,0.422-18.496-5.885-18.566-16.015c-0.222-31.875-1.069-63.838,0.913-95.605
		c1.737-27.853,24.367-49.663,51.835-54.294c33.921-5.718,65.708,16.075,72.835,49.935c6.814,32.384-14.169,65.234-46.951,73.332
		c-12.782,3.157-25.423,2.309-37.837-2.048C771.839,888.261,770.149,887.674,767.34,886.693z M766.258,829.917
		c0.13,15.569,14.1,29.604,29.601,29.739c15.474,0.134,29.785-13.911,29.884-29.328c0.104-16.203-13.851-30.096-30.206-30.07
		C779.708,800.282,766.125,814.041,766.258,829.917z"/>
	<path fill-rule="evenodd" clip-rule="evenodd" fill="#FFFFFF" d="M1092.277,676.869c-0.007,15.588,0.009,31.177-0.014,46.767
		c-0.012,7.427-3.668,12.653-10.362,15.402c-6.665,2.738-12.953,1.458-18.402-3.335c-4.07-3.581-4.919-8.34-4.911-13.471
		c0.036-27.693,0.099-55.388-0.015-83.081c-0.076-19.016-14.019-32.088-32.361-30.635c-15.06,1.193-26.534,13.387-26.574,28.507
		c-0.073,28.61-0.051,57.221-0.006,85.832c0.014,7.41-3.432,12.64-9.902,15.782c-6.553,3.183-13.248,2.561-18.354-2.475
		c-2.845-2.806-5.486-7.388-5.541-11.208c-0.427-30.254-0.723-60.529-0.046-90.775c0.688-30.734,26.596-57.041,56.061-59.374
		c38.78-3.069,65.846,22.818,69.649,51.507c1.795,13.531,0.624,27.457,0.782,41.204
		C1092.315,670.632,1092.285,673.75,1092.277,676.869z"/>
	<path fill-rule="evenodd" clip-rule="evenodd" fill="#FFFFFF" d="M359.012,853.477c-2.074-0.746-3.48-1.146-4.798-1.741
		c-25.724-11.608-43.872-30.494-54.368-56.705c-0.406-1.015-1.155-2.172-0.953-3.087c0.354-1.602,1.073-4.1,2.092-4.346
		c1.543-0.373,3.786,0.464,5.146,1.533c1.146,0.901,1.5,2.847,2.134,4.358c9.291,22.186,24.696,38.601,46.319,49.173
		c2.291,1.12,4.721,2.133,6.664,3.716c0.995,0.811,1.787,3.073,1.349,4.136C362.047,851.843,360.141,852.612,359.012,853.477z"/>
	<path fill-rule="evenodd" clip-rule="evenodd" fill="#FFFFFF" d="M303.796,769.953c-2.671,1.885-4.351,3.93-5.488,3.663
		c-1.578-0.369-2.75-2.476-4.095-3.838c1.317-1.217,2.552-3.271,3.974-3.41C299.537,766.238,301.083,768.11,303.796,769.953z"/>
</g>
<path fill-rule="evenodd" clip-rule="evenodd" fill="#55386E" d="M750.44,1478.59c-402.946-1.038-727.117-324.519-726.977-727.432
	c0.141-402.94,324.55-726.99,727.477-726.701c402.747,0.289,726.567,324.492,726.431,727.203
	C1477.233,1154.363,1153.18,1477.529,750.44,1478.59z M1428.993,751.642c0.93-373.593-304.382-678.636-677.931-678.981
	C377.099,72.314,71.931,377.3,71.664,750.905c-0.267,373.706,304.432,678.759,677.832,679.251
	C1123.584,1430.65,1429.677,1125.553,1428.993,751.642z"/>
</svg>
